<svg id="Layer_1" data-name="Layer 1" xmlns="http://www.w3.org/2000/svg" viewBox="0 0 194 180"><title>MIT-Weer</title><g id="_17" data-name="17"><path d="M158,36A36,36,0,0,0,91.53,16.83a42.09,42.09,0,0,1,22.09,31.54A42,42,0,0,1,145.94,108H158a36,36,0,0,0,0-72Z" fill="#16284a"/><path d="M108,54a36,36,0,0,0-72,0,36,36,0,0,0,0,72h72a36,36,0,0,0,0-72Z" fill="#fff"/><polygon points="29 144 21 144 23 132 31 132 29 144" fill="#2396cd"/><polygon points="121 144 113 144 115 132 123 132 121 144" fill="#2396cd"/><polygon points="39 162 31 162 33 150 41 150 39 162" fill="#2396cd"/><polygon points="80 145.91 89 132 57 132 58 156 63 156 64 180 87 146 80 145.91" fill="#ffe240"/></g></svg>