<svg id="Layer_1" data-name="Layer 1" xmlns="http://www.w3.org/2000/svg" viewBox="0 0 194 162"><title>MIT-Weer</title><g id="_18" data-name="18"><path d="M158,36A36,36,0,0,0,91.53,16.83a42.09,42.09,0,0,1,22.09,31.54A42,42,0,0,1,145.94,108H158a36,36,0,0,0,0-72Z" fill="#16284a"/><path d="M108,54a36,36,0,0,0-72,0,36,36,0,0,0,0,72h72a36,36,0,0,0,0-72Z" fill="#fff"/><polygon points="29 144 21 144 23 132 31 132 29 144" fill="#2396cd"/><polygon points="52 144 44 144 46 132 54 132 52 144" fill="#2396cd"/><polygon points="75 144 67 144 69 132 77 132 75 144" fill="#2396cd"/><polygon points="98 144 90 144 92 132 100 132 98 144" fill="#2396cd"/><polygon points="121 144 113 144 115 132 123 132 121 144" fill="#2396cd"/><polygon points="39 162 31 162 33 150 41 150 39 162" fill="#16284a"/><polygon points="62 162 54 162 56 150 64 150 62 162" fill="#2396cd"/><polygon points="85 162 77 162 79 150 87 150 85 162" fill="#2396cd"/><polygon points="108 162 100 162 102 150 110 150 108 162" fill="#2396cd"/><polygon points="39 162 31 162 33 150 41 150 39 162" fill="#2396cd"/></g></svg>