<svg id="Layer_1" data-name="Layer 1" xmlns="http://www.w3.org/2000/svg" viewBox="0 0 194 162"><title>MIT-Weer</title><g id="_23" data-name="23"><polygon points="87 142.1 84 136.9 75.51 141.8 75.51 132 69.51 132 69.51 141.8 61.02 136.9 58.02 142.1 66.51 147 58.02 151.9 61.02 157.1 69.51 152.2 69.51 162 75.51 162 75.51 152.2 84 157.1 87 151.9 78.51 147 87 142.1" fill="#fff"/><path d="M158,36A36,36,0,0,0,91.53,16.83a42.09,42.09,0,0,1,22.09,31.54A42,42,0,0,1,145.94,108H158a36,36,0,0,0,0-72Z" fill="#16284a"/><path d="M108,54a36,36,0,0,0-72,0,36,36,0,0,0,0,72h72a36,36,0,0,0,0-72Z" fill="#fff"/><polygon points="39.98 142.1 36.98 136.9 28.49 141.8 28.49 132 22.49 132 22.49 141.8 14 136.9 11 142.1 19.49 147 11 151.9 14 157.1 22.49 152.2 22.49 162 28.49 162 28.49 152.2 36.98 157.1 39.98 151.9 31.49 147 39.98 142.1" fill="#fff"/><polygon points="133.98 142.1 130.98 136.9 122.49 141.8 122.49 132 116.49 132 116.49 141.8 108 136.9 105 142.1 113.49 147 105 151.9 108 157.1 116.49 152.2 116.49 162 122.49 162 122.49 152.2 130.98 157.1 133.98 151.9 125.49 147 133.98 142.1" fill="#fff"/></g></svg>