<svg id="Layer_1" data-name="Layer 1" xmlns="http://www.w3.org/2000/svg" viewBox="0 0 158 124"><title>MIT-Weer</title><g id="_25" data-name="25"><path d="M126,56H0V46H126c13.78,0,22-6.73,22-18a18,18,0,0,0-32.85-10.17l-8.24-5.66A28,28,0,0,1,158,28a26.73,26.73,0,0,1-8.34,19.93C144,53.21,135.78,56,126,56Z" fill="#fff"/><path d="M104,124a28.17,28.17,0,0,1-25.22-15.82l9-4.35A18,18,0,0,0,122,96c0-11.27-8.22-18-22-18H0V68H100c9.78,0,18,2.79,23.66,8.07A26.73,26.73,0,0,1,132,96,28,28,0,0,1,104,124Z" fill="#fff"/></g></svg>