<svg id="Layer_1" data-name="Layer 1" xmlns="http://www.w3.org/2000/svg" viewBox="0 0 198.72 198.72">
    <g id="windicon">
      <path class="cls-2" d="M199.32,81.22c-1,1.8-1.07,3.88-1.78,5.78a28.77,28.77,0,0,1-26.64,19c-13.88.14-27.75,0-41.63,0H7.49c-3.28,0-5.14-1.08-6.05-3.47a5.31,5.31,0,0,1,3.55-7,11.55,11.55,0,0,1,3.26-.28q80.36,0,160.7,0c6.55,0,12-2.11,16-7.45a18.14,18.14,0,0,0-12-28.73,18.21,18.21,0,0,0-20.87,17.41c-.14,3.25-1.77,5.3-4.37,5.83a5.45,5.45,0,0,1-6.44-5.46c-.23-13.92,11.19-26.78,25-28.58,16.57-2.17,30.91,9.81,32.72,24.79,0,.15.21.27.32.41Z" transform="translate(-0.64 -0.64)"/>
      <path class="cls-2" d="M73.26,86.86h-41a10.22,10.22,0,0,1-3.44-.37,5.31,5.31,0,0,1-3.41-5.85,5.18,5.18,0,0,1,4.82-4.5c.77-.06,1.54,0,2.32,0h79.74c5.77,0,10-2.8,11.51-7.62a10.83,10.83,0,1,0-20.88-5.71,20.44,20.44,0,0,0-.35,2.49c-.29,3.25-2.53,5.4-5.51,5.25a5.46,5.46,0,0,1-5.25-6,21.66,21.66,0,0,1,21.93-21c11.44.15,21,9.35,21.34,20.53.36,12.06-8.31,22.07-20.18,22.55-10.56.42-21.15.16-31.73.19C79.84,86.87,76.55,86.86,73.26,86.86Z" transform="translate(-0.64 -0.64)"/>
      <path class="cls-2" d="M122.85,112.75c13,0,26.07,0,39.1,0,10.12,0,18.16,5.33,21.3,14.28,2.93,8.34,1.34,16-4.77,22.35s-13.79,8.27-22.16,5.56-13.29-8.72-14.75-17.46a16.42,16.42,0,0,1-.27-2.88,5.45,5.45,0,0,1,5.31-5.53,5.24,5.24,0,0,1,5.43,5.14c.24,4.5,2.13,8,6.22,9.93a10.79,10.79,0,1,0,6.34-20.39,21.11,21.11,0,0,0-3.46-.24q-40,0-79.95,0c-3.65,0-5.74-1.48-6.28-4.41a5.24,5.24,0,0,1,4.21-6.16,15.19,15.19,0,0,1,2.7-.17Z" transform="translate(-0.64 -0.64)"/>
      <path class="cls-2" d="M58.54,123.49c-1.67,0-3.34.05-5,0a5.21,5.21,0,0,1-5.26-5.07A5.1,5.1,0,0,1,53,112.88a72.06,72.06,0,0,1,11.38,0,5.24,5.24,0,0,1,4.76,5.39,5.36,5.36,0,0,1-5.2,5.19c-1.8.08-3.6,0-5.41,0Z" transform="translate(-0.64 -0.64)"/>
      <path class="cls-2" d="M15.2,76.11c5.13-.46,7.36,4.15,6,7.4-1.49,3.51-5.47,4-9,2.88a5.2,5.2,0,0,1-3-6.79C10.07,77.22,12,76.11,15.2,76.11Z" transform="translate(-0.64 -0.64)"/>
  </g>
</svg>
